<svg xmlns="http://www.w3.org/2000/svg" viewBox="0 0 220.957 98.35"><title>logo-codecuriosity.org</title><path d="M12.092,79.219l93,.12a3.523,3.523,0,0,1,1.809.427,2.678,2.678,0,0,1,1.22,1.26l2.253,3.948a1.436,1.436,0,0,1,.013,1.447,1.55,1.55,0,0,1-1.337.609l-93-.12a3.959,3.959,0,0,1-1.776-.442,2.682,2.682,0,0,1-1.284-1.313l-2.223-3.881a1.407,1.407,0,0,1,.02-1.462A1.485,1.485,0,0,1,12.092,79.219Z" transform="translate(-10.576 -15.575)" style="fill:#c00000"/><path d="M100.873,79.219l124.831.12a3.523,3.523,0,0,1,1.809.427,2.678,2.678,0,0,1,1.22,1.26l2.253,3.948A1.436,1.436,0,0,1,231,86.421a1.55,1.55,0,0,1-1.337.609H104.583a3.959,3.959,0,0,1-1.776-.442,2.682,2.682,0,0,1-1.284-1.313l-1.975-4a1.407,1.407,0,0,1,.02-1.462A1.485,1.485,0,0,1,100.873,79.219Z" transform="translate(-10.576 -15.575)"/><path d="M43.66,25.969v5.877a3.3,3.3,0,0,1-.625,1.873,3.4,3.4,0,0,1-1.506,1.286l-18,7.861q-.882.368-.882.881t.882.882l18,7.787A3.423,3.423,0,0,1,43.035,53.7a3.309,3.309,0,0,1,.625,1.874v5.951a1.405,1.405,0,0,1-.625,1.323,1.48,1.48,0,0,1-1.433,0L12.951,49.4a3.244,3.244,0,0,1-1.4-1.322,3.609,3.609,0,0,1-.588-1.91V41.324a3.615,3.615,0,0,1,.588-1.91,3.261,3.261,0,0,1,1.4-1.322L41.6,24.646a1.488,1.488,0,0,1,1.433,0A1.408,1.408,0,0,1,43.66,25.969Z" transform="translate(-10.576 -15.575)" style="fill:#c00000"/><path d="M99.788,59.1q-.735,1.03-1.506,2.021A20.146,20.146,0,0,1,96.629,63a24.974,24.974,0,0,1-5.73,4.481,25.209,25.209,0,0,1-3.232,1.689,27.22,27.22,0,0,1-3.526,1.249,28.207,28.207,0,0,1-7.494,1.028,26.792,26.792,0,0,1-10.8-2.2A28.188,28.188,0,0,1,51.006,54.4a27.56,27.56,0,0,1,0-21.6,30.444,30.444,0,0,1,5.951-8.89,30.415,30.415,0,0,1,8.89-5.951,26.784,26.784,0,0,1,10.8-2.2,28.227,28.227,0,0,1,7.494,1.028A27.872,27.872,0,0,1,90.9,19.651a27,27,0,0,1,3.049,2.094,31.984,31.984,0,0,1,2.682,2.388,28.362,28.362,0,0,1,3.159,3.894,1.7,1.7,0,0,1,.22,1.58,2,2,0,0,1-1.175,1.139l-5.437,2.2a2.627,2.627,0,0,1-1.8.11,2.878,2.878,0,0,1-1.58-.992q-.368-.367-.734-.771t-.735-.771a18.564,18.564,0,0,0-1.653-1.469,19.784,19.784,0,0,0-1.8-1.249,15.359,15.359,0,0,0-1.984-1.028q-1.03-.441-2.057-.808a14.786,14.786,0,0,0-4.408-.661,16.824,16.824,0,0,0-6.906,1.469,17.638,17.638,0,0,0-5.51,4.041,20.683,20.683,0,0,0-3.747,5.8,17.753,17.753,0,0,0-1.4,6.979,17.4,17.4,0,0,0,1.4,6.979,20.648,20.648,0,0,0,3.747,5.8,17.268,17.268,0,0,0,12.416,5.51,14.8,14.8,0,0,0,4.408-.661q1.028-.367,2.057-.809A15.118,15.118,0,0,0,85.095,59.4a15.944,15.944,0,0,0,1.8-1.286q.844-.7,1.653-1.506.367-.367.735-.771t.734-.771a3.089,3.089,0,0,1,1.58-1.029,2.516,2.516,0,0,1,1.8.074l5.437,2.2a1.993,1.993,0,0,1,1.175,1.175A1.764,1.764,0,0,1,99.788,59.1Z" transform="translate(-10.576 -15.575)" style="fill:#c00000"/><path d="M104.376,69.807l24.783-52.593a3,3,0,0,1,1.139-1.17,3.132,3.132,0,0,1,1.653-.468h5.437a1.6,1.6,0,0,1,1.322.468,1.017,1.017,0,0,1,0,1.17L113.926,69.807a3.392,3.392,0,0,1-1.139,1.141,3.127,3.127,0,0,1-1.727.5H105.7a1.549,1.549,0,0,1-1.322-.5A.976.976,0,0,1,104.376,69.807Z" transform="translate(-10.576 -15.575)"/><path d="M192.091,59.1q-.735,1.03-1.506,2.021A20.146,20.146,0,0,1,188.931,63a30.047,30.047,0,0,1-8.963,6.171,27.22,27.22,0,0,1-3.526,1.249,28.207,28.207,0,0,1-7.494,1.028,26.792,26.792,0,0,1-10.8-2.2,28.188,28.188,0,0,1-14.84-14.84,27.56,27.56,0,0,1,0-21.6,30.444,30.444,0,0,1,5.951-8.89,30.415,30.415,0,0,1,8.89-5.951,26.784,26.784,0,0,1,10.8-2.2,28.227,28.227,0,0,1,7.494,1.028,27.872,27.872,0,0,1,6.759,2.865,27,27,0,0,1,3.049,2.094,31.984,31.984,0,0,1,2.682,2.388,28.362,28.362,0,0,1,3.159,3.894,1.7,1.7,0,0,1,.22,1.58,2,2,0,0,1-1.175,1.139l-5.437,2.2a2.627,2.627,0,0,1-1.8.11,2.878,2.878,0,0,1-1.58-.992q-.368-.367-.734-.771t-.735-.771a18.564,18.564,0,0,0-1.653-1.469,19.784,19.784,0,0,0-1.8-1.249,15.359,15.359,0,0,0-1.984-1.028q-1.03-.441-2.057-.808a14.786,14.786,0,0,0-4.408-.661,16.824,16.824,0,0,0-6.906,1.469,17.638,17.638,0,0,0-5.51,4.041,20.683,20.683,0,0,0-3.747,5.8,17.753,17.753,0,0,0-1.4,6.979,17.4,17.4,0,0,0,1.4,6.979,20.648,20.648,0,0,0,3.747,5.8,17.268,17.268,0,0,0,12.416,5.51,14.8,14.8,0,0,0,4.408-.661q1.028-.367,2.057-.809A15.118,15.118,0,0,0,177.4,59.4a15.944,15.944,0,0,0,1.8-1.286q.844-.7,1.653-1.506.367-.367.735-.771t.734-.771a3.089,3.089,0,0,1,1.58-1.029,2.516,2.516,0,0,1,1.8.074l5.437,2.2a1.993,1.993,0,0,1,1.175,1.175A1.766,1.766,0,0,1,192.091,59.1Z" transform="translate(-10.576 -15.575)"/><path d="M231.072,41.324v4.849a3.609,3.609,0,0,1-.588,1.91,3.153,3.153,0,0,1-1.469,1.322L200.438,62.85a1.547,1.547,0,0,1-1.471,0,1.433,1.433,0,0,1-.588-1.323V55.576A3.306,3.306,0,0,1,199,53.7a3.526,3.526,0,0,1,1.434-1.286L218.51,44.63c.537-.245.809-.539.809-.882s-.271-.636-.809-.881l-18.072-7.861A3.505,3.505,0,0,1,199,33.72a3.3,3.3,0,0,1-.625-1.873V25.969a1.435,1.435,0,0,1,.588-1.323,1.555,1.555,0,0,1,1.471,0l28.578,13.445a3.168,3.168,0,0,1,1.469,1.322A3.615,3.615,0,0,1,231.072,41.324Z" transform="translate(-10.576 -15.575)"/><path d="M29.487,109.558q-.26.365-.533.715a7.079,7.079,0,0,1-.585.663,8.827,8.827,0,0,1-2.028,1.586,8.911,8.911,0,0,1-1.144.6,9.662,9.662,0,0,1-1.248.442,9.978,9.978,0,0,1-2.652.364,9.474,9.474,0,0,1-3.821-.78,9.971,9.971,0,0,1-5.251-5.251,9.746,9.746,0,0,1,0-7.642,10.757,10.757,0,0,1,2.105-3.146A10.757,10.757,0,0,1,17.477,95a9.475,9.475,0,0,1,3.821-.78,9.978,9.978,0,0,1,2.652.364A9.839,9.839,0,0,1,26.341,95.6a9.525,9.525,0,0,1,1.079.741,11.242,11.242,0,0,1,.949.845,10.021,10.021,0,0,1,1.118,1.377.6.6,0,0,1,.078.559.708.708,0,0,1-.416.4l-1.923.78a.931.931,0,0,1-.637.039,1.018,1.018,0,0,1-.559-.351q-.13-.13-.26-.273c-.087-.095-.173-.186-.26-.273a6.579,6.579,0,0,0-.585-.52,7.056,7.056,0,0,0-.637-.442,5.462,5.462,0,0,0-.7-.364q-.364-.156-.728-.286A5.243,5.243,0,0,0,21.3,97.6a5.958,5.958,0,0,0-2.443.52,6.245,6.245,0,0,0-1.95,1.43,7.327,7.327,0,0,0-1.326,2.054,6.286,6.286,0,0,0-.494,2.469,6.165,6.165,0,0,0,.494,2.47,7.313,7.313,0,0,0,1.326,2.054,5.451,5.451,0,0,0,1.95,1.4,5.487,5.487,0,0,0,2.443.546,5.227,5.227,0,0,0,1.56-.234q.363-.13.728-.286a5.345,5.345,0,0,0,.7-.364,5.6,5.6,0,0,0,.637-.455q.3-.247.585-.533.13-.13.26-.273c.086-.095.173-.186.26-.273a1.091,1.091,0,0,1,.559-.364.892.892,0,0,1,.637.026l1.923.78a.705.705,0,0,1,.416.416A.624.624,0,0,1,29.487,109.558Z" transform="translate(-10.576 -15.575)"/><path d="M40.95,113.925a9.478,9.478,0,0,1-3.821-.78,9.975,9.975,0,0,1-5.251-5.251,9.848,9.848,0,0,1,0-7.681,9.94,9.94,0,0,1,5.251-5.264,9.816,9.816,0,0,1,7.668,0,9.94,9.94,0,0,1,5.251,5.264,9.848,9.848,0,0,1,0,7.681,9.975,9.975,0,0,1-5.251,5.251A9.542,9.542,0,0,1,40.95,113.925Zm.013-16.351a5.614,5.614,0,0,0-2.426.533,6.6,6.6,0,0,0-1.972,1.417,6.7,6.7,0,0,0-1.336,2.066,6.4,6.4,0,0,0,0,4.926,6.9,6.9,0,0,0,1.336,2.066,6.47,6.47,0,0,0,1.972,1.43,5.788,5.788,0,0,0,4.851,0,6.468,6.468,0,0,0,1.971-1.43,6.89,6.89,0,0,0,1.336-2.066,6.4,6.4,0,0,0,0-4.926,6.688,6.688,0,0,0-1.336-2.066,6.6,6.6,0,0,0-1.971-1.417A5.613,5.613,0,0,0,40.964,97.574Z" transform="translate(-10.576 -15.575)"/><path d="M54.181,113.561a.737.737,0,0,1-.559-.234.8.8,0,0,1-.221-.572V95.339a.8.8,0,0,1,.221-.572.737.737,0,0,1,.559-.234h6.707a9.578,9.578,0,0,1,6.707,2.392A8.322,8.322,0,0,1,69.7,99.992a11.235,11.235,0,0,1,.728,4.055,12.007,12.007,0,0,1-.182,2.145A9.94,9.94,0,0,1,69.7,108.1a7.891,7.891,0,0,1-2.105,3.093,8.6,8.6,0,0,1-2.99,1.768,11.225,11.225,0,0,1-3.717.6Zm3.639-3.223h3.094a9.556,9.556,0,0,0,2.053-.234,4.542,4.542,0,0,0,1.872-.936,4.982,4.982,0,0,0,1.4-1.9,7.8,7.8,0,0,0,.546-3.2,8.105,8.105,0,0,0-.546-3.223,4.979,4.979,0,0,0-1.4-1.9,4.7,4.7,0,0,0-1.9-.91,9.483,9.483,0,0,0-2.027-.234H57.821a.736.736,0,0,0-.559.234.8.8,0,0,0-.221.572v10.917a.8.8,0,0,0,.221.572A.734.734,0,0,0,57.821,110.338Z" transform="translate(-10.576 -15.575)"/><path d="M76.017,98.562v3.146a.8.8,0,0,0,.806.806h7.59a.8.8,0,0,1,.806.806v1.689a.8.8,0,0,1-.806.806h-7.59a.8.8,0,0,0-.806.806v2.859a.8.8,0,0,0,.806.806h8.76a.8.8,0,0,1,.806.806v1.664a.8.8,0,0,1-.806.806h-12.4a.8.8,0,0,1-.806-.806V95.339a.8.8,0,0,1,.806-.806h12.4a.8.8,0,0,1,.806.806V96.95a.8.8,0,0,1-.806.806h-8.76a.8.8,0,0,0-.806.806Z" transform="translate(-10.576 -15.575)"/><path d="M105.963,109.558q-.26.365-.533.715a7.079,7.079,0,0,1-.585.663,10.629,10.629,0,0,1-3.171,2.184,9.662,9.662,0,0,1-1.248.442,9.978,9.978,0,0,1-2.652.364,9.474,9.474,0,0,1-3.821-.78,9.971,9.971,0,0,1-5.251-5.251,9.746,9.746,0,0,1,0-7.642A9.741,9.741,0,0,1,93.954,95a9.475,9.475,0,0,1,3.821-.78,9.978,9.978,0,0,1,2.652.364,9.839,9.839,0,0,1,2.391,1.014,9.525,9.525,0,0,1,1.079.741,11.242,11.242,0,0,1,.949.845,10.021,10.021,0,0,1,1.118,1.377.6.6,0,0,1,.078.559.708.708,0,0,1-.416.4l-1.923.78a.931.931,0,0,1-.637.039,1.018,1.018,0,0,1-.559-.351q-.13-.13-.26-.273c-.087-.095-.173-.186-.26-.273a6.579,6.579,0,0,0-.585-.52,7.056,7.056,0,0,0-.637-.442,5.462,5.462,0,0,0-.7-.364q-.364-.156-.728-.286a5.243,5.243,0,0,0-1.56-.234,5.958,5.958,0,0,0-2.443.52,6.245,6.245,0,0,0-1.95,1.43,7.327,7.327,0,0,0-1.326,2.054,6.286,6.286,0,0,0-.494,2.469,6.165,6.165,0,0,0,.494,2.47,7.313,7.313,0,0,0,1.326,2.054,6.112,6.112,0,0,0,4.393,1.949,5.227,5.227,0,0,0,1.56-.234q.363-.13.728-.286a5.345,5.345,0,0,0,.7-.364,5.6,5.6,0,0,0,.637-.455q.3-.247.585-.533.13-.13.26-.273c.086-.095.173-.186.26-.273a1.091,1.091,0,0,1,.559-.364.892.892,0,0,1,.637.026l1.923.78a.705.705,0,0,1,.416.416A.624.624,0,0,1,105.963,109.558Z" transform="translate(-10.576 -15.575)"/><path d="M113.346,113.327a7.249,7.249,0,0,1-2.574-1.612,6.816,6.816,0,0,1-1.664-2.521,8.968,8.968,0,0,1-.572-3.3V95.365a.778.778,0,0,1,.234-.572.747.747,0,0,1,.546-.234h2.054a.8.8,0,0,1,.806.806v10.5a5.279,5.279,0,0,0,.468,2.365,4.752,4.752,0,0,0,1.144,1.482,3.876,3.876,0,0,0,1.481.754q.416.1.767.156a4.467,4.467,0,0,0,.663.052,5.966,5.966,0,0,0,1.4-.208,3.451,3.451,0,0,0,1.482-.754,4.23,4.23,0,0,0,1.169-1.482,5.272,5.272,0,0,0,.468-2.365v-10.5a.8.8,0,0,1,.806-.806h2.028a.8.8,0,0,1,.806.806v10.528a10.048,10.048,0,0,1-.143,1.729,8.594,8.594,0,0,1-.429,1.573,7.291,7.291,0,0,1-1.638,2.521,7.572,7.572,0,0,1-2.574,1.612,9.343,9.343,0,0,1-3.379.572A9.131,9.131,0,0,1,113.346,113.327Z" transform="translate(-10.576 -15.575)"/><path d="M131.23,113.561h-2.054a.8.8,0,0,1-.806-.806V95.339a.8.8,0,0,1,.806-.806h7.851A7.425,7.425,0,0,1,139.7,95a6.825,6.825,0,0,1,2.054,1.352,5.928,5.928,0,0,1,.78.962,6.208,6.208,0,0,1,.572,1.118,7.364,7.364,0,0,1,.468,2.651,6.521,6.521,0,0,1-1.066,3.77,6.063,6.063,0,0,1-2.158,1.976.7.7,0,0,0-.364.429.569.569,0,0,0,.13.533q.962,1.3,1.833,2.457t1.807,2.457a.617.617,0,0,1,.117.572.4.4,0,0,1-.429.286h-2.625a1.564,1.564,0,0,1-.7-.182,1.674,1.674,0,0,1-.572-.442q-.442-.6-.871-1.183t-.871-1.183l-1.716-2.417a1.548,1.548,0,0,0-.572-.468,1.57,1.57,0,0,0-.7-.182h-2a.8.8,0,0,0-.806.806v4.445a.8.8,0,0,1-.221.572A.737.737,0,0,1,131.23,113.561Zm1.586-9.28h4.211a2.849,2.849,0,0,0,1.014-.208,2.583,2.583,0,0,0,.962-.6,3.544,3.544,0,0,0,.676-.988,3.274,3.274,0,0,0,.26-1.4,5.079,5.079,0,0,0-.1-.988,3.2,3.2,0,0,0-.156-.559q-.1-.272-.234-.533a2.7,2.7,0,0,0-.884-.884,2.912,2.912,0,0,0-1.534-.364h-4.211a.8.8,0,0,0-.806.806v4.913a.8.8,0,0,0,.806.806Z" transform="translate(-10.576 -15.575)"/><path d="M149.79,113.561h-2.054a.736.736,0,0,1-.559-.234.8.8,0,0,1-.221-.572V95.365a.8.8,0,0,1,.221-.572.734.734,0,0,1,.559-.234h2.054a.8.8,0,0,1,.806.806v17.391a.8.8,0,0,1-.806.806Z" transform="translate(-10.576 -15.575)"/><path d="M163.515,113.925a9.478,9.478,0,0,1-3.821-.78,9.975,9.975,0,0,1-5.251-5.251,9.848,9.848,0,0,1,0-7.681,9.94,9.94,0,0,1,5.251-5.264,9.816,9.816,0,0,1,7.668,0,9.94,9.94,0,0,1,5.251,5.264,9.848,9.848,0,0,1,0,7.681,9.975,9.975,0,0,1-5.251,5.251A9.542,9.542,0,0,1,163.515,113.925Zm.013-16.351a5.614,5.614,0,0,0-2.426.533,6.6,6.6,0,0,0-1.972,1.417,6.7,6.7,0,0,0-1.336,2.066,6.4,6.4,0,0,0,0,4.926,6.9,6.9,0,0,0,1.336,2.066,6.47,6.47,0,0,0,1.972,1.43,5.788,5.788,0,0,0,4.851,0,6.468,6.468,0,0,0,1.971-1.43,6.89,6.89,0,0,0,1.336-2.066,6.4,6.4,0,0,0,0-4.926,6.688,6.688,0,0,0-1.336-2.066,6.6,6.6,0,0,0-1.971-1.417A5.613,5.613,0,0,0,163.529,97.574Z" transform="translate(-10.576 -15.575)"/><path d="M175.655,110.416l1.092-1.611a.706.706,0,0,1,.494-.338.832.832,0,0,1,.6.13,21.44,21.44,0,0,0,2.288,1.248,7.152,7.152,0,0,0,3.2.728,4.769,4.769,0,0,0,1.56-.234,3.542,3.542,0,0,0,1.144-.572,2.519,2.519,0,0,0,.7-.806,1.771,1.771,0,0,0,.234-.884,1.515,1.515,0,0,0-.364-.988,3.072,3.072,0,0,0-.936-.65,5.247,5.247,0,0,0-.624-.234q-.338-.1-.754-.208-.39-.1-.793-.182t-.845-.156q-.286-.052-.624-.117c-.225-.043-.459-.091-.7-.143a7.826,7.826,0,0,1-1.56-.39,7.415,7.415,0,0,1-1.586-.65,5.363,5.363,0,0,1-1.4-1.014,4.3,4.3,0,0,1-1.014-1.456,5.019,5.019,0,0,1-.364-1.976,5.376,5.376,0,0,1,.676-2.781,5.312,5.312,0,0,1,1.716-1.742,7.829,7.829,0,0,1,2.339-.884,11.986,11.986,0,0,1,2.5-.26,13.065,13.065,0,0,1,2.131.156q.468.078.9.195t.845.247a8.432,8.432,0,0,1,.806.351q.39.195.754.4.26.156.494.312t.52.312a.794.794,0,0,1,.338.52.774.774,0,0,1-.156.6l-1.092,1.56a.8.8,0,0,1-.533.338.848.848,0,0,1-.611-.13,10.192,10.192,0,0,0-1.924-.988,6.941,6.941,0,0,0-2.625-.494q-.234,0-.507.026t-.559.078a5.271,5.271,0,0,0-1.144.39,3.71,3.71,0,0,0-.481.286,2.271,2.271,0,0,0-.4.364,1.517,1.517,0,0,0-.338.988,1.267,1.267,0,0,0,.416.962,3.363,3.363,0,0,0,1.066.65q.337.13.688.234t.741.208q.39.1.767.182t.741.182q.286.053.6.13a6.5,6.5,0,0,0,.676.13q.364.053.754.143t.78.221c.139.035.281.078.429.13s.29.1.429.156q.312.13.715.338a5.481,5.481,0,0,1,.689.416,3.451,3.451,0,0,1,.377.273q.168.144.325.3a4.391,4.391,0,0,1,.988,1.508,5.533,5.533,0,0,1,.39,2.184,6.046,6.046,0,0,1-.52,2.574,4.675,4.675,0,0,1-1.482,1.793,6.354,6.354,0,0,1-2.288,1.092,11.459,11.459,0,0,1-2.937.364,12.925,12.925,0,0,1-2.625-.234,9.313,9.313,0,0,1-2.054-.6q-.468-.182-.91-.4t-.858-.481c-.173-.1-.347-.212-.52-.325s-.355-.238-.546-.377a.7.7,0,0,1-.338-.494A.826.826,0,0,1,175.655,110.416Z" transform="translate(-10.576 -15.575)"/><path d="M196.346,113.561h-2.053a.736.736,0,0,1-.56-.234.8.8,0,0,1-.221-.572V95.365a.8.8,0,0,1,.221-.572.735.735,0,0,1,.56-.234h2.053a.8.8,0,0,1,.806.806v17.391a.8.8,0,0,1-.806.806Z" transform="translate(-10.576 -15.575)"/><path d="M212.984,97.756h-3.821a.8.8,0,0,0-.806.806v14.193a.8.8,0,0,1-.807.806h-2.027a.8.8,0,0,1-.806-.806V98.562a.8.8,0,0,0-.806-.806h-3.848a.8.8,0,0,1-.806-.806V95.339a.8.8,0,0,1,.806-.806h12.92a.8.8,0,0,1,.806.806V96.95a.8.8,0,0,1-.806.806Z" transform="translate(-10.576 -15.575)"/><path d="M231.44,95.235l-.6.975q-.312.507-.676,1.079-.467.754-.948,1.534t-.975,1.586q-.521.806-1,1.6t-.949,1.547q-.365.572-.688,1.092t-.611,1.014a2.369,2.369,0,0,0-.286.728,3.452,3.452,0,0,0-.1.78v5.589a.8.8,0,0,1-.806.806h-2.054a.734.734,0,0,1-.559-.234.8.8,0,0,1-.222-.572v-5.589a3.13,3.13,0,0,0-.116-.78,2.6,2.6,0,0,0-.3-.728q-.753-1.326-1.546-2.612t-1.625-2.587q-.858-1.326-1.664-2.612t-1.56-2.612a.444.444,0,0,1-.064-.481.487.487,0,0,1,.455-.195h2.651a1.415,1.415,0,0,1,.688.195,1.236,1.236,0,0,1,.507.481l.988,1.664q.492.832,1.014,1.689.494.858.987,1.69l.988,1.664a.458.458,0,0,0,.4.286.516.516,0,0,0,.43-.286c.12-.208.246-.416.376-.624s.265-.424.4-.65l1.248-2.105q.312-.519.61-1.04t.611-1.04q.208-.312.39-.624l.364-.624a1.236,1.236,0,0,1,.507-.481,1.409,1.409,0,0,1,.688-.195h2.651a.455.455,0,0,1,.442.195A.5.5,0,0,1,231.44,95.235Z" transform="translate(-10.576 -15.575)"/></svg>
